<?xml version="1.0" encoding="UTF-8" standalone="no"?>
<!-- Created with Inkscape (http://www.inkscape.org/) -->

<svg
   xmlns:dc="http://purl.org/dc/elements/1.1/"
   xmlns:cc="http://creativecommons.org/ns#"
   xmlns:rdf="http://www.w3.org/1999/02/22-rdf-syntax-ns#"
   xmlns:svg="http://www.w3.org/2000/svg"
   xmlns="http://www.w3.org/2000/svg"
   xmlns:xlink="http://www.w3.org/1999/xlink"
   xmlns:sodipodi="http://sodipodi.sourceforge.net/DTD/sodipodi-0.dtd"
   xmlns:inkscape="http://www.inkscape.org/namespaces/inkscape"
   width="48"
   height="48"
   id="svg3075"
   version="1.1"
   inkscape:version="0.91 r13725"
   sodipodi:docname="windows_cone_icon_w.svg">
  <defs
     id="defs3077">
    <linearGradient
       inkscape:collect="always"
       id="linearGradient3906">
      <stop
         style="stop-color:#ffffff;stop-opacity:1;"
         offset="0"
         id="stop3908" />
      <stop
         style="stop-color:#ffffff;stop-opacity:0;"
         offset="1"
         id="stop3910" />
    </linearGradient>
    <linearGradient
       id="linearGradient5801">
      <stop
         id="stop5807"
         offset="0"
         style="stop-color:#7f4400;stop-opacity:0.49803922;" />
      <stop
         style="stop-color:#000000;stop-opacity:0;"
         offset="1"
         id="stop5805" />
    </linearGradient>
    <linearGradient
       id="linearGradient4755"
       inkscape:collect="always">
      <stop
         id="stop4757"
         offset="0"
         style="stop-color:#000000;stop-opacity:1;" />
      <stop
         id="stop4759"
         offset="1"
         style="stop-color:#000000;stop-opacity:0;" />
    </linearGradient>
    <linearGradient
       inkscape:collect="always"
       xlink:href="#linearGradient4755"
       id="linearGradient3168"
       gradientUnits="userSpaceOnUse"
       gradientTransform="matrix(0.70645135,0,0,0.70645135,-127.87625,199.80852)"
       x1="130"
       y1="972.36218"
       x2="350"
       y2="1202.3622" />
    <linearGradient
       inkscape:collect="always"
       xlink:href="#linearGradient5801"
       id="linearGradient3170"
       gradientUnits="userSpaceOnUse"
       gradientTransform="matrix(0.70645135,0,0,0.70645135,-127.87625,405.05058)"
       x1="288"
       y1="905.83679"
       x2="248"
       y2="865.83679" />
    <linearGradient
       inkscape:collect="always"
       xlink:href="#linearGradient3906"
       id="linearGradient3172"
       gradientUnits="userSpaceOnUse"
       gradientTransform="matrix(0.70645135,0,0,0.70645135,-339.81165,411.74394)"
       x1="548"
       y1="840.36218"
       x2="520"
       y2="868.36218" />
    <linearGradient
       inkscape:collect="always"
       xlink:href="#linearGradient4755-4"
       id="linearGradient3243"
       gradientUnits="userSpaceOnUse"
       gradientTransform="matrix(0.73291793,0,0,0.73291793,-68.425047,408.9889)"
       x1="288"
       y1="905.83679"
       x2="248"
       y2="865.83679" />
    <linearGradient
       id="linearGradient4755-4">
      <stop
         id="stop4757-9"
         offset="0"
         style="stop-color:#ff8800;stop-opacity:1;" />
      <stop
         id="stop4759-3"
         offset="1"
         style="stop-color:#000000;stop-opacity:0;" />
    </linearGradient>
    <linearGradient
       inkscape:collect="always"
       xlink:href="#linearGradient4755-4"
       id="linearGradient3902"
       gradientUnits="userSpaceOnUse"
       gradientTransform="matrix(0.73291793,0,0,0.73291793,-68.425047,196.05764)"
       x1="220"
       y1="1064.3622"
       x2="324"
       y2="1200.3622" />
    <linearGradient
       id="linearGradient4041">
      <stop
         id="stop4043"
         offset="0"
         style="stop-color:#ff8800;stop-opacity:1;" />
      <stop
         id="stop4045"
         offset="1"
         style="stop-color:#000000;stop-opacity:0;" />
    </linearGradient>
    <linearGradient
       inkscape:collect="always"
       xlink:href="#linearGradient4755-4"
       id="linearGradient4102"
       gradientUnits="userSpaceOnUse"
       gradientTransform="matrix(0.73291793,0,0,0.73291793,-68.425047,196.05764)"
       x1="220"
       y1="1064.3622"
       x2="324"
       y2="1200.3622" />
    <linearGradient
       inkscape:collect="always"
       xlink:href="#linearGradient4755-4"
       id="linearGradient4104"
       gradientUnits="userSpaceOnUse"
       gradientTransform="matrix(0.73291793,0,0,0.73291793,-68.425047,408.9889)"
       x1="288"
       y1="905.83679"
       x2="248"
       y2="865.83679" />
    <linearGradient
       inkscape:collect="always"
       xlink:href="#linearGradient4755-4"
       id="linearGradient4109"
       gradientUnits="userSpaceOnUse"
       gradientTransform="matrix(0.6925994,0,0,0.6925994,-124.58052,417.00327)"
       x1="288"
       y1="905.83679"
       x2="248"
       y2="865.83679" />
    <linearGradient
       inkscape:collect="always"
       xlink:href="#linearGradient4755-4"
       id="linearGradient4112"
       gradientUnits="userSpaceOnUse"
       gradientTransform="matrix(0.6925994,0,0,0.6925994,-124.58052,215.78557)"
       x1="220"
       y1="1064.3622"
       x2="324"
       y2="1200.3622" />
    <linearGradient
       inkscape:collect="always"
       xlink:href="#linearGradient5801-7"
       id="linearGradient4748"
       gradientUnits="userSpaceOnUse"
       gradientTransform="matrix(0.30474373,0,0,0.30474373,-109.31562,751.9659)"
       x1="288"
       y1="905.83679"
       x2="248"
       y2="865.83679" />
    <linearGradient
       id="linearGradient5801-7">
      <stop
         id="stop5807-8"
         offset="0"
         style="stop-color:#7f4400;stop-opacity:0.49803922;" />
      <stop
         style="stop-color:#000000;stop-opacity:0;"
         offset="1"
         id="stop5805-8" />
    </linearGradient>
    <linearGradient
       inkscape:collect="always"
       xlink:href="#linearGradient4755-1"
       id="linearGradient4746"
       gradientUnits="userSpaceOnUse"
       gradientTransform="matrix(0.30474373,0,0,0.30474373,-109.31562,663.59818)"
       x1="235"
       y1="1087.3622"
       x2="350"
       y2="1202.3622" />
    <linearGradient
       id="linearGradient4755-1">
      <stop
         id="stop4757-7"
         offset="0"
         style="stop-color:#ff8800;stop-opacity:1;" />
      <stop
         id="stop4759-4"
         offset="1"
         style="stop-color:#000000;stop-opacity:0;" />
    </linearGradient>
  </defs>
  <sodipodi:namedview
     id="base"
     pagecolor="#ffffff"
     bordercolor="#666666"
     borderopacity="1.0"
     inkscape:pageopacity="0.0"
     inkscape:pageshadow="2"
     inkscape:zoom="11.2"
     inkscape:cx="16.945225"
     inkscape:cy="24.003345"
     inkscape:document-units="px"
     inkscape:current-layer="g3158"
     showgrid="true"
     inkscape:window-width="1920"
     inkscape:window-height="1056"
     inkscape:window-x="0"
     inkscape:window-y="24"
     inkscape:window-maximized="1">
    <inkscape:grid
       type="xygrid"
       id="grid3026"
       empspacing="4"
       visible="true"
       enabled="true"
       snapvisiblegridlinesonly="true" />
  </sodipodi:namedview>
  <metadata
     id="metadata3080">
    <rdf:RDF>
      <cc:Work
         rdf:about="">
        <dc:format>image/svg+xml</dc:format>
        <dc:type
           rdf:resource="http://purl.org/dc/dcmitype/StillImage" />
        <dc:title></dc:title>
        <cc:license
           rdf:resource="" />
      </cc:Work>
    </rdf:RDF>
  </metadata>
  <g
     inkscape:label="Layer 1"
     inkscape:groupmode="layer"
     id="layer1"
     transform="translate(0,-1004.3622)">
    <g
       id="g3158"
       transform="matrix(3.2814457,0,0,3.2814457,1.9860072,-2409.9574)">
      <path
         inkscape:connector-curvature="0"
         style="fill:#ffffff;fill-opacity:1"
         d="m 6.7132502,1041.109 c -0.1764445,0 -0.3186395,0.028 -0.4581868,0.1145 -0.2291489,0.1146 -0.5729456,1.1459 -0.5729456,1.1459 l -0.2290823,0.6873 c 0.9165749,0.4583 1.6040671,0.4583 2.5206529,0 l -0.2293058,-0.6873 c 0,0 -0.3435841,-1.0313 -0.5727334,-1.1459 -0.1396587,-0.087 -0.2821887,-0.1145 -0.458399,-0.1145 z m -2.0622535,4.3538 -0.9165859,2.7497 c 1.7186024,1.4895 4.2393,1.4895 5.9579023,0 l -0.9165858,-2.7497 c -1.3901212,1.0379 -2.7498466,1.0312 -4.1247306,0 z m 5.4990563,4.1245 0.229316,0.6875 c 0,0 0.22915,0.4586 0,0.6877 -0.8055684,0.8056 -2.0909285,1.2349 -3.4047412,1.2853 -1.4181941,0.054 -2.8679907,-0.3346 -3.7915693,-1.1605 0.00157,0 0.00324,0 0.0048,0.01 -0.025134,-0.022 -0.05028,-0.045 -0.074622,-0.068 -0.022576,-0.021 -0.044773,-0.042 -0.066545,-0.064 -0.0067,-0.01 -0.013014,-0.014 -0.018979,-0.021 0,0 2.24e-5,0 -0.00112,0 -0.00536,-0.01 -0.010724,-0.013 -0.015483,-0.02 0,-4e-4 -0.00112,0 -0.00112,0 -0.00357,-0.01 -0.00659,-0.011 -0.00983,-0.016 -0.00179,0 -0.00335,-0.01 -0.00503,-0.01 -0.00112,0 -0.00223,0 -0.00324,-0.01 -0.00346,-0.01 -0.0076,-0.013 -0.010724,-0.02 -0.00279,-0.01 -0.00492,-0.012 -0.00737,-0.019 -0.00134,0 -0.0029,-0.01 -0.00413,-0.01 -0.00112,0 -0.00157,-0.01 -0.00246,-0.01 -0.0019,-0.01 -0.00346,-0.011 -0.00503,-0.017 -0.00145,-0.01 -0.00257,-0.011 -0.00391,-0.016 -0.00201,-0.01 -0.00436,-0.017 -0.00592,-0.026 -0.00112,-0.01 -0.00157,-0.011 -0.00246,-0.017 -0.00134,-0.01 -0.00257,-0.018 -0.00324,-0.028 0,-0.01 2.23e-5,-0.011 -0.00112,-0.017 -0.00168,-0.032 -0.00123,-0.063 0.00246,-0.095 0.00168,-0.018 0.0038,-0.035 0.00659,-0.052 0.00179,-0.011 0.00369,-0.022 0.00592,-0.033 0.00112,0 0.00157,-0.01 0.00246,-0.011 0.00603,-0.029 0.013025,-0.056 0.02051,-0.081 0.00112,0 0.00157,-0.01 0.00246,-0.01 0.0029,-0.01 0.00614,-0.018 0.00916,-0.027 0.00659,-0.02 0.012612,-0.038 0.018767,-0.054 0.00112,0 0.00157,0 0.00257,-0.01 0.0048,-0.012 0.00916,-0.021 0.013092,-0.03 0.0019,0 0.00424,-0.011 0.00592,-0.015 0.00112,0 0.00112,0 0.00157,0 0.00581,-0.013 0.00916,-0.02 0.00916,-0.02 l 0.2290934,-0.6874 -0.013964,0 -0.9774561,0 c -0.1538572,0 -0.5637856,0.2288 -0.6621902,0.5583 l 0,0 c -0.3762592,1.2857 -0.7276294,2.4865 -1.0562223,3.6094 -0.067484,0.2306 0.00346,0.4042 0.1223999,0.5265 0.057296,0.059 0.1253937,0.106 0.1944076,0.1416 5.59e-5,0 0,0 0,0 0.022967,0.012 0.046002,0.022 0.068735,0.032 5.59e-5,0 0,0 0,0 0.022867,0.01 0.045343,0.018 0.067204,0.025 0.021638,0.01 0.042729,0.013 0.062613,0.017 6.71e-5,0 0,0 0,0 0.019929,0 0.038652,0.01 0.056067,0.011 0,0 0,0 0,0 0.017304,0 0.0333,0 0.047354,0 6.7e-5,0 0,0 0,0 l 11.0954332,0 c 0.02221,0 0.0523,0 0.08728,-0.014 0.06992,-0.018 0.159331,-0.055 0.243705,-0.1132 0,0 0,0 0,0 0.04222,-0.029 0.08312,-0.063 0.119786,-0.1023 0.118244,-0.1273 0.191581,-0.3115 0.118244,-0.5618 -0.175182,-0.5989 -0.34794,-1.1908 -0.522319,-1.7867 l -0.533892,-1.8153 c -0.08903,-0.3036 -0.499317,-0.5339 -0.677025,-0.5339 l -0.966765,0 z"
         id="path8037" />
    </g>
  </g>
</svg>
